<svg width="43" height="43" viewBox="0 0 43 43" fill="none" xmlns="http://www.w3.org/2000/svg">
<circle cx="21.5" cy="21.5" r="21.5" fill="#DFFE0F"/>
<path d="M18.636 26.988L12.552 27V25.848L15.42 23.424C16.608 22.416 17.004 21.84 17.004 21C17.004 20.004 16.464 19.44 15.54 19.44C14.58 19.44 13.98 20.112 13.968 21.24H12.444C12.456 19.32 13.68 18.072 15.54 18.072C17.412 18.072 18.576 19.14 18.576 20.916C18.576 22.14 17.904 23.064 16.572 24.204L14.988 25.56H18.636V26.988ZM21.5744 18.228V22.836L25.1264 18.228H26.9384L24.0344 21.972L26.9744 27H25.1984L23.0264 23.268L21.5744 25.128V27H20.0384V18.228H21.5744ZM28.1123 22.344H30.5003V19.956H31.7243V22.344H34.1123V23.568H31.7243V25.968H30.5003V23.568H28.1123V22.344Z" fill="#121212"/>
</svg>
