<svg width="803" height="536" viewBox="0 0 803 536" fill="none" xmlns="http://www.w3.org/2000/svg">
<mask id="path-1-outside-1_39_250" maskUnits="userSpaceOnUse" x="0.5" y="0" width="1085" height="850" fill="black">
<rect fill="white" x="0.5" width="1085" height="850"/>
<path fill-rule="evenodd" clip-rule="evenodd" d="M579.219 814.38C628.381 837.127 688.55 848.5 759.725 848.5C825.764 848.5 882.998 837.86 931.426 816.581C980.589 795.302 1018.38 765.584 1044.79 727.428C1071.21 688.539 1084.42 643.779 1084.42 593.149C1084.42 545.455 1072.31 504.73 1048.1 470.977C1024.61 437.224 991.228 410.442 947.936 390.63C904.644 370.818 854.381 358.711 797.147 354.308L726.706 347.704C687.082 344.769 658.098 334.13 639.754 315.786C621.41 296.708 612.238 274.695 612.238 249.747C612.238 229.201 617.374 210.123 627.647 192.513C637.92 174.903 653.329 160.961 673.874 150.688C694.42 140.416 720.102 135.279 750.92 135.279C783.206 135.279 809.621 141.149 830.167 152.89C851.446 163.896 867.222 178.938 877.495 198.016C888.501 216.36 894.004 236.539 894.004 258.552H1046.99C1046.99 206.455 1034.89 161.328 1010.67 123.172C986.459 84.2825 952.339 54.198 908.313 32.9188C864.287 11.6396 811.823 1 750.92 1C692.219 1 640.855 11.2727 596.829 31.8182C553.537 51.6299 519.784 80.2467 495.569 117.669C475.327 148.34 463.545 184.139 460.225 225.065C417.546 197.98 364.796 184.438 301.977 184.438C252.815 184.438 209.523 193.243 172.101 210.854C134.679 227.73 103.127 250.844 77.4448 280.195C52.4967 308.811 33.4188 341.831 20.211 379.253C7.73701 415.941 1.5 454.097 1.5 493.72V514.633C1.5 552.789 7.73701 590.211 20.211 626.899C33.4188 663.587 52.4967 696.974 77.4448 727.058C103.127 756.409 135.045 779.889 173.201 797.5C212.091 815.11 257.217 823.915 308.581 823.915C357.743 823.915 401.403 815.477 439.558 798.6C462.556 788.62 483.115 776.203 501.237 761.347C522.718 782.373 548.712 800.051 579.219 814.38ZM435.275 640.701C431.445 622.681 429.53 603.896 429.53 584.344H582.521C582.521 605.623 588.391 626.536 600.131 647.081C611.871 666.893 630.582 683.036 656.264 695.51C682.68 707.984 717.167 714.221 759.725 714.221C797.881 714.221 829.8 708.717 855.482 697.711C881.163 686.704 900.241 672.396 912.715 654.786C925.189 636.442 931.426 615.896 931.426 593.149C931.426 564.532 919.319 541.786 895.105 524.909C870.891 507.299 833.469 496.292 782.839 491.89L712.397 486.386C668.099 482.589 628.895 473.092 594.785 457.894C595.495 467.15 595.851 476.524 595.851 486.016V541.048H146.569C149.187 564.109 154.395 585.388 162.195 604.886C173.935 633.503 191.912 656.25 216.127 673.126C240.341 689.269 271.159 697.341 308.581 697.341C346.003 697.341 376.454 690.003 399.935 675.328C415.354 665.209 427.134 653.667 435.275 640.701ZM149.177 447.493H449.705C447.007 428.465 442.524 411.222 436.256 395.763C425.25 368.613 408.373 347.701 385.627 333.026C363.614 318.35 335.73 311.013 301.977 311.013C268.224 311.013 239.607 318.717 216.127 334.126C192.646 349.535 174.669 371.915 162.195 401.266C156.45 415.269 152.11 430.678 149.177 447.493Z"/>
</mask>
<path fill-rule="evenodd" clip-rule="evenodd" d="M579.219 814.38C628.381 837.127 688.55 848.5 759.725 848.5C825.764 848.5 882.998 837.86 931.426 816.581C980.589 795.302 1018.38 765.584 1044.79 727.428C1071.21 688.539 1084.42 643.779 1084.42 593.149C1084.42 545.455 1072.31 504.73 1048.1 470.977C1024.61 437.224 991.228 410.442 947.936 390.63C904.644 370.818 854.381 358.711 797.147 354.308L726.706 347.704C687.082 344.769 658.098 334.13 639.754 315.786C621.41 296.708 612.238 274.695 612.238 249.747C612.238 229.201 617.374 210.123 627.647 192.513C637.92 174.903 653.329 160.961 673.874 150.688C694.42 140.416 720.102 135.279 750.92 135.279C783.206 135.279 809.621 141.149 830.167 152.89C851.446 163.896 867.222 178.938 877.495 198.016C888.501 216.36 894.004 236.539 894.004 258.552H1046.99C1046.99 206.455 1034.89 161.328 1010.67 123.172C986.459 84.2825 952.339 54.198 908.313 32.9188C864.287 11.6396 811.823 1 750.92 1C692.219 1 640.855 11.2727 596.829 31.8182C553.537 51.6299 519.784 80.2467 495.569 117.669C475.327 148.34 463.545 184.139 460.225 225.065C417.546 197.98 364.796 184.438 301.977 184.438C252.815 184.438 209.523 193.243 172.101 210.854C134.679 227.73 103.127 250.844 77.4448 280.195C52.4967 308.811 33.4188 341.831 20.211 379.253C7.73701 415.941 1.5 454.097 1.5 493.72V514.633C1.5 552.789 7.73701 590.211 20.211 626.899C33.4188 663.587 52.4967 696.974 77.4448 727.058C103.127 756.409 135.045 779.889 173.201 797.5C212.091 815.11 257.217 823.915 308.581 823.915C357.743 823.915 401.403 815.477 439.558 798.6C462.556 788.62 483.115 776.203 501.237 761.347C522.718 782.373 548.712 800.051 579.219 814.38ZM435.275 640.701C431.445 622.681 429.53 603.896 429.53 584.344H582.521C582.521 605.623 588.391 626.536 600.131 647.081C611.871 666.893 630.582 683.036 656.264 695.51C682.68 707.984 717.167 714.221 759.725 714.221C797.881 714.221 829.8 708.717 855.482 697.711C881.163 686.704 900.241 672.396 912.715 654.786C925.189 636.442 931.426 615.896 931.426 593.149C931.426 564.532 919.319 541.786 895.105 524.909C870.891 507.299 833.469 496.292 782.839 491.89L712.397 486.386C668.099 482.589 628.895 473.092 594.785 457.894C595.495 467.15 595.851 476.524 595.851 486.016V541.048H146.569C149.187 564.109 154.395 585.388 162.195 604.886C173.935 633.503 191.912 656.25 216.127 673.126C240.341 689.269 271.159 697.341 308.581 697.341C346.003 697.341 376.454 690.003 399.935 675.328C415.354 665.209 427.134 653.667 435.275 640.701ZM149.177 447.493H449.705C447.007 428.465 442.524 411.222 436.256 395.763C425.25 368.613 408.373 347.701 385.627 333.026C363.614 318.35 335.73 311.013 301.977 311.013C268.224 311.013 239.607 318.717 216.127 334.126C192.646 349.535 174.669 371.915 162.195 401.266C156.45 415.269 152.11 430.678 149.177 447.493Z" fill="white" fill-opacity="0.1"/>
<path d="M579.219 814.38L578.793 815.285L578.799 815.287L579.219 814.38ZM931.426 816.581L931.029 815.663L931.024 815.666L931.426 816.581ZM1044.79 727.428L1045.62 727.998L1045.62 727.99L1044.79 727.428ZM1048.1 470.977L1047.27 471.548L1047.28 471.554L1047.28 471.56L1048.1 470.977ZM947.936 390.63L948.352 389.721L948.352 389.721L947.936 390.63ZM797.147 354.308L797.054 355.304L797.062 355.305L797.071 355.305L797.147 354.308ZM726.706 347.704L726.799 346.709L726.789 346.708L726.779 346.707L726.706 347.704ZM639.754 315.786L639.033 316.479L639.04 316.486L639.047 316.493L639.754 315.786ZM627.647 192.513L626.783 192.009L626.783 192.009L627.647 192.513ZM673.874 150.688L673.427 149.794L673.427 149.794L673.874 150.688ZM830.167 152.89L829.67 153.758L829.689 153.768L829.707 153.778L830.167 152.89ZM877.495 198.016L876.614 198.49L876.625 198.511L876.637 198.531L877.495 198.016ZM894.004 258.552H893.004V259.552H894.004V258.552ZM1046.99 258.552V259.552H1047.99V258.552H1046.99ZM1010.67 123.172L1009.82 123.701L1009.83 123.708L1010.67 123.172ZM908.313 32.9188L908.748 32.0184L908.748 32.0184L908.313 32.9188ZM596.829 31.8182L597.245 32.7275L597.252 32.7243L596.829 31.8182ZM495.569 117.669L496.404 118.22L496.409 118.212L495.569 117.669ZM460.225 225.065L459.689 225.91L461.088 226.797L461.222 225.146L460.225 225.065ZM172.101 210.854L172.512 211.765L172.519 211.762L172.526 211.758L172.101 210.854ZM77.4448 280.195L76.6922 279.536L76.691 279.537L77.4448 280.195ZM20.211 379.253L19.268 378.92L19.2643 378.931L20.211 379.253ZM20.211 626.899L19.2643 627.221L19.2671 627.229L19.2701 627.238L20.211 626.899ZM77.4448 727.058L76.675 727.696L76.6835 727.707L76.6922 727.717L77.4448 727.058ZM173.201 797.5L172.782 798.408L172.789 798.411L173.201 797.5ZM439.558 798.6L439.16 797.683L439.154 797.686L439.558 798.6ZM501.237 761.347L501.937 760.633L501.297 760.006L500.603 760.574L501.237 761.347ZM435.275 640.701L436.122 641.233L436.337 640.889L436.253 640.493L435.275 640.701ZM429.53 584.344V583.344H428.53V584.344H429.53ZM582.521 584.344H583.521V583.344H582.521V584.344ZM600.131 647.081L599.263 647.577L599.267 647.584L599.271 647.591L600.131 647.081ZM656.264 695.51L655.827 696.409L655.837 696.414L656.264 695.51ZM855.482 697.711L855.088 696.792L855.088 696.792L855.482 697.711ZM912.715 654.786L913.531 655.364L913.537 655.356L913.542 655.348L912.715 654.786ZM895.105 524.909L894.517 525.718L894.525 525.724L894.533 525.729L895.105 524.909ZM782.839 491.89L782.925 490.893L782.917 490.893L782.839 491.89ZM712.397 486.386L712.312 487.383L712.319 487.383L712.397 486.386ZM594.785 457.894L595.192 456.981L593.659 456.298L593.788 457.971L594.785 457.894ZM595.851 541.048V542.048H596.851V541.048H595.851ZM146.569 541.048V540.048H145.449L145.575 541.161L146.569 541.048ZM162.195 604.886L161.266 605.257L161.27 605.266L162.195 604.886ZM216.127 673.126L215.555 673.947L215.563 673.953L215.572 673.958L216.127 673.126ZM399.935 675.328L400.465 676.176L400.474 676.17L400.484 676.164L399.935 675.328ZM149.177 447.493L148.192 447.321L147.987 448.493H149.177V447.493ZM449.705 447.493V448.493H450.857L450.695 447.353L449.705 447.493ZM436.256 395.763L437.183 395.387L437.183 395.387L436.256 395.763ZM385.627 333.026L385.072 333.858L385.078 333.862L385.084 333.866L385.627 333.026ZM216.127 334.126L216.675 334.962L216.675 334.962L216.127 334.126ZM162.195 401.266L161.274 400.875L161.27 400.886L162.195 401.266ZM759.725 847.5C688.651 847.5 628.635 836.142 579.638 813.472L578.799 815.287C628.127 838.111 688.448 849.5 759.725 849.5V847.5ZM931.024 815.666C882.75 836.877 825.659 847.5 759.725 847.5V849.5C825.869 849.5 883.246 838.844 931.829 817.497L931.024 815.666ZM1043.97 726.859C1017.68 764.839 980.047 794.447 931.029 815.663L931.824 817.499C981.13 796.157 1019.08 766.33 1045.62 727.998L1043.97 726.859ZM1083.42 593.149C1083.42 643.595 1070.26 688.156 1043.97 726.867L1045.62 727.99C1072.16 688.922 1085.42 643.963 1085.42 593.149H1083.42ZM1047.28 471.56C1071.36 505.119 1083.42 545.632 1083.42 593.149H1085.42C1085.42 545.278 1073.26 504.342 1048.91 470.394L1047.28 471.56ZM947.52 391.539C990.676 411.288 1023.91 437.964 1047.27 471.548L1048.92 470.406C1025.32 436.484 991.781 409.595 948.352 389.721L947.52 391.539ZM797.071 355.305C854.21 359.701 904.354 371.785 947.52 391.539L948.352 389.721C904.934 369.851 854.552 357.721 797.224 353.311L797.071 355.305ZM726.612 348.7L797.054 355.304L797.241 353.313L726.799 346.709L726.612 348.7ZM639.047 316.493C657.631 335.076 686.891 345.758 726.632 348.702L726.779 346.707C687.273 343.781 658.566 333.183 640.461 315.079L639.047 316.493ZM611.238 249.747C611.238 274.97 620.522 297.227 639.033 316.479L640.475 315.093C622.298 296.188 613.238 274.419 613.238 249.747H611.238ZM626.783 192.009C616.421 209.774 611.238 229.026 611.238 249.747H613.238C613.238 229.377 618.328 210.473 628.511 193.017L626.783 192.009ZM673.427 149.794C652.731 160.142 637.166 174.21 626.783 192.009L628.511 193.017C638.674 175.595 653.927 161.78 674.322 151.583L673.427 149.794ZM750.92 134.279C719.997 134.279 694.151 139.432 673.427 149.794L674.322 151.583C694.689 141.399 720.206 136.279 750.92 136.279V134.279ZM830.663 152.021C809.921 140.169 783.319 134.279 750.92 134.279V136.279C783.092 136.279 809.321 142.13 829.67 153.758L830.663 152.021ZM878.375 197.542C867.997 178.268 852.064 163.09 830.626 152.001L829.707 153.778C850.827 164.702 866.447 179.608 876.614 198.49L878.375 197.542ZM895.004 258.552C895.004 236.363 889.455 216.006 878.352 197.502L876.637 198.531C887.547 216.715 893.004 236.715 893.004 258.552H895.004ZM1046.99 257.552H894.004V259.552H1046.99V257.552ZM1009.83 123.708C1033.93 161.68 1045.99 206.615 1045.99 258.552H1047.99C1047.99 206.294 1035.85 160.976 1011.52 122.636L1009.83 123.708ZM907.878 33.8191C951.745 55.0219 985.717 84.9825 1009.82 123.701L1011.52 122.644C987.201 83.5824 952.932 53.3742 908.748 32.0184L907.878 33.8191ZM750.92 2C811.708 2 864.016 12.6196 907.878 33.8191L908.748 32.0184C864.557 10.6596 811.937 0 750.92 0V2ZM597.252 32.7243C641.121 12.2522 692.335 2 750.92 2V0C692.102 0 640.589 10.2932 596.406 30.912L597.252 32.7243ZM496.409 118.212C520.513 80.9608 554.114 52.4656 597.245 32.7275L596.413 30.9089C552.96 50.7941 519.054 79.5326 494.73 117.126L496.409 118.212ZM461.222 225.146C464.53 184.367 476.264 148.734 496.404 118.22L494.735 117.118C474.389 147.945 462.56 183.91 459.228 224.985L461.222 225.146ZM301.977 185.438C364.653 185.438 417.205 198.949 459.689 225.91L460.761 224.221C417.886 197.012 364.94 183.438 301.977 183.438V185.438ZM172.526 211.758C209.792 194.221 252.935 185.438 301.977 185.438V183.438C252.695 183.438 209.253 192.265 171.675 209.949L172.526 211.758ZM78.1974 280.853C103.78 251.616 135.213 228.586 172.512 211.765L171.689 209.942C134.144 226.874 102.473 250.072 76.6922 279.536L78.1974 280.853ZM21.154 379.586C34.3217 342.277 53.3372 309.369 78.1986 280.852L76.691 279.537C51.6562 308.254 32.5159 341.384 19.268 378.92L21.154 379.586ZM2.5 493.72C2.5 454.204 8.71983 416.157 21.1578 379.575L19.2643 378.931C6.7542 415.725 0.5 453.99 0.5 493.72H2.5ZM2.5 514.633V493.72H0.5V514.633H2.5ZM21.1578 626.577C8.71847 589.991 2.5 552.677 2.5 514.633H0.5C0.5 552.9 6.75555 590.431 19.2643 627.221L21.1578 626.577ZM78.2145 726.42C53.3403 696.424 34.3204 663.139 21.1519 626.56L19.2701 627.238C32.5173 664.035 51.6532 697.523 76.675 727.696L78.2145 726.42ZM173.62 796.592C135.582 779.035 103.78 755.637 78.1974 726.4L76.6922 727.717C102.473 757.181 134.509 780.743 172.782 798.408L173.62 796.592ZM308.581 822.915C257.331 822.915 212.35 814.13 173.614 796.589L172.789 798.411C211.832 816.09 257.104 824.915 308.581 824.915V822.915ZM439.154 797.686C401.146 814.497 357.629 822.915 308.581 822.915V824.915C357.858 824.915 401.659 816.457 439.963 799.515L439.154 797.686ZM500.603 760.574C482.558 775.367 462.079 787.737 439.16 797.683L439.956 799.518C463.033 789.503 483.673 777.039 501.871 762.121L500.603 760.574ZM579.644 813.475C549.226 799.188 523.328 781.571 501.937 760.633L500.538 762.062C522.108 783.175 548.197 800.914 578.793 815.285L579.644 813.475ZM436.253 640.493C432.439 622.546 430.53 603.83 430.53 584.344H428.53C428.53 603.961 430.452 622.817 434.297 640.909L436.253 640.493ZM429.53 585.344H582.521V583.344H429.53V585.344ZM581.521 584.344C581.521 605.816 587.446 626.898 599.263 647.577L600.999 646.585C589.335 626.173 583.521 605.43 583.521 584.344H581.521ZM599.271 647.591C611.132 667.608 630.011 683.87 655.827 696.409L656.701 694.61C631.153 682.201 612.61 666.178 600.991 646.571L599.271 647.591ZM655.837 696.414C682.433 708.973 717.081 715.221 759.725 715.221V713.221C717.252 713.221 682.926 706.994 656.691 694.605L655.837 696.414ZM759.725 715.221C797.97 715.221 830.033 709.706 855.875 698.63L855.088 696.792C829.567 707.729 797.792 713.221 759.725 713.221V715.221ZM855.875 698.63C881.678 687.572 900.924 673.163 913.531 655.364L911.899 654.208C899.559 671.629 880.649 685.837 855.088 696.792L855.875 698.63ZM913.542 655.348C926.132 636.834 932.426 616.091 932.426 593.149H930.426C930.426 615.701 924.247 636.049 911.888 654.223L913.542 655.348ZM932.426 593.149C932.426 564.193 920.149 541.145 895.677 524.089L894.533 525.729C918.489 542.426 930.426 564.872 930.426 593.149H932.426ZM895.693 524.1C871.262 506.332 833.625 495.302 782.925 490.893L782.752 492.886C833.312 497.282 870.519 508.265 894.517 525.718L895.693 524.1ZM782.917 490.893L712.475 485.389L712.319 487.383L782.761 492.887L782.917 490.893ZM712.483 485.39C668.275 481.601 629.183 472.125 595.192 456.981L594.378 458.808C628.607 474.059 667.923 483.578 712.312 487.383L712.483 485.39ZM593.788 457.971C594.496 467.2 594.851 476.549 594.851 486.016H596.851C596.851 476.499 596.494 467.099 595.782 457.818L593.788 457.971ZM594.851 486.016V541.048H596.851V486.016H594.851ZM595.851 540.048H146.569V542.048H595.851V540.048ZM145.575 541.161C148.202 564.301 153.431 585.668 161.266 605.257L163.123 604.515C155.36 585.108 150.171 563.916 147.562 540.936L145.575 541.161ZM161.27 605.266C173.079 634.051 191.175 656.955 215.555 673.947L216.698 672.306C192.65 655.545 174.791 632.954 163.12 604.506L161.27 605.266ZM215.572 673.958C239.992 690.238 271.018 698.341 308.581 698.341V696.341C271.3 696.341 240.69 688.3 216.681 672.294L215.572 673.958ZM308.581 698.341C346.127 698.341 376.779 690.979 400.465 676.176L399.405 674.48C376.13 689.026 345.88 696.341 308.581 696.341V698.341ZM400.484 676.164C415.998 665.982 427.89 654.343 436.122 641.233L434.428 640.169C426.377 652.991 414.709 664.436 399.386 674.492L400.484 676.164ZM149.177 448.493H449.705V446.493H149.177V448.493ZM450.695 447.353C447.987 428.256 443.485 410.932 437.183 395.387L435.33 396.138C441.562 411.512 446.026 428.675 448.715 447.634L450.695 447.353ZM437.183 395.387C426.106 368.063 409.103 346.982 386.169 332.185L385.084 333.866C407.644 348.42 424.394 369.163 435.33 396.138L437.183 395.387ZM386.181 332.194C363.964 317.382 335.874 310.013 301.977 310.013V312.013C335.587 312.013 363.263 319.319 385.072 333.858L386.181 332.194ZM301.977 310.013C268.069 310.013 239.252 317.754 215.578 333.29L216.675 334.962C239.962 319.68 268.379 312.013 301.977 312.013V310.013ZM215.578 333.29C191.911 348.822 173.815 371.368 161.274 400.875L163.115 401.657C175.523 372.463 193.381 350.249 216.675 334.962L215.578 333.29ZM161.27 400.886C155.494 414.965 151.136 430.444 148.192 447.321L150.162 447.665C153.085 430.913 157.406 415.574 163.12 401.646L161.27 400.886Z" fill="#7E8492" mask="url(#path-1-outside-1_39_250)"/>
</svg>
